# Blender v2.79 (sub 0) OBJ File: ''
# www.blender.org
o Cone
v 0.803033 0.000036 -1.051499
v 0.803033 2.000036 -0.051499
v 0.998124 0.000036 -1.032285
v 1.185717 0.000036 -0.975379
v 1.358604 0.000036 -0.882969
v 1.510140 0.000036 -0.758606
v 1.634503 0.000036 -0.607070
v 1.726913 0.000036 -0.434183
v 1.783819 0.000036 -0.246590
v 1.803033 0.000036 -0.051499
v 1.783819 0.000036 0.143591
v 1.726913 0.000036 0.331184
v 1.634503 0.000036 0.504071
v 1.014084 1.333896 0.134629
v 1.358604 0.000036 0.779970
v 1.185717 0.000036 0.872380
v 0.998124 0.000036 0.929286
v 0.803033 0.000036 0.948501
v 0.607943 0.000036 0.929286
v 0.420350 0.000036 0.872380
v 0.247463 0.000036 0.779970
v 0.095926 0.000036 0.655607
v -0.028437 0.000036 0.504070
v -0.120846 0.000036 0.331183
v -0.177752 0.000036 0.143590
v -0.196967 0.000036 -0.051500
v -0.177752 0.000036 -0.246591
v -0.120846 0.000036 -0.434184
v -0.028435 0.000036 -0.607071
v 0.095928 0.000036 -0.758607
v 0.247464 0.000036 -0.882970
v 0.420351 0.000036 -0.975379
v 0.607945 0.000036 -1.032285
vn 0.0878 0.4455 -0.8910
vn 0.2599 0.4455 -0.8567
vn 0.4220 0.4455 -0.7896
vn 0.5680 0.4455 -0.6921
vn 0.6921 0.4455 -0.5680
vn 0.7896 0.4455 -0.4220
vn 0.8567 0.4455 -0.2599
vn 0.8910 0.4455 -0.0878
vn 0.8910 0.4455 0.0878
vn 0.8567 0.4455 0.2599
vn 0.7896 0.4455 0.4220
vn 0.0158 0.2737 0.9617
vn 0.8982 0.3565 0.2572
vn 0.4220 0.4455 0.7896
vn 0.2599 0.4455 0.8567
vn 0.0878 0.4455 0.8910
vn -0.0878 0.4455 0.8910
vn -0.2599 0.4455 0.8567
vn -0.4220 0.4455 0.7896
vn -0.5680 0.4455 0.6921
vn -0.6921 0.4455 0.5680
vn -0.7896 0.4455 0.4220
vn -0.8567 0.4455 0.2599
vn -0.8910 0.4455 0.0878
vn -0.8910 0.4455 -0.0878
vn -0.8567 0.4455 -0.2599
vn -0.7896 0.4455 -0.4220
vn -0.6921 0.4455 -0.5680
vn -0.5680 0.4455 -0.6921
vn -0.4220 0.4455 -0.7896
vn -0.2599 0.4455 -0.8567
vn -0.0878 0.4455 -0.8910
vn 0.5585 -0.6914 0.4583
vn 0.0728 -0.6692 0.7395
vn -0.2230 -0.6403 0.7350
vn -0.5066 -0.6018 0.6173
vn -0.7319 -0.5580 0.3912
vn -0.8525 -0.5159 0.0840
vn -0.8370 -0.4847 -0.2539
vn -0.4133 -0.4809 -0.7733
vn -0.7758 -0.4757 -0.4147
vn -0.8078 -0.5362 0.2450
vn -0.3691 -0.6221 0.6905
vn 0.2130 -0.6793 0.7023
vn 0.4589 -0.6904 0.5592
vn 0.6389 -0.6893 0.3415
vn 0.7334 -0.6760 0.0722
vn 0.7266 -0.6507 -0.2204
vn 0.6096 -0.6150 -0.5002
vn 0.3866 -0.5721 -0.7233
vn 0.0832 -0.5286 -0.8448
vn -0.2526 -0.4930 -0.8326
vn -0.8627 -0.4984 -0.0850
vn -0.0844 -0.5092 -0.8565
vn 0.2424 -0.5500 -0.7992
vn 0.6820 -0.6340 -0.3645
vn 0.6979 -0.6841 0.2117
vn 0.3428 -0.6864 0.6414
vn -0.6296 -0.5802 0.5167
vn 0.5103 -0.5941 -0.6218
vn 0.7434 -0.6648 -0.0732
vn -0.0740 -0.6561 0.7510
s off
f 1//1 2//1 3//1
f 3//2 2//2 4//2
f 4//3 2//3 5//3
f 5//4 2//4 6//4
f 6//5 2//5 7//5
f 7//6 2//6 8//6
f 8//7 2//7 9//7
f 9//8 2//8 10//8
f 10//9 2//9 11//9
f 11//10 2//10 12//10
f 12//11 2//11 13//11
f 13//12 2//12 14//12
f 14//13 2//13 15//13
f 15//14 2//14 16//14
f 16//15 2//15 17//15
f 17//16 2//16 18//16
f 18//17 2//17 19//17
f 19//18 2//18 20//18
f 20//19 2//19 21//19
f 21//20 2//20 22//20
f 22//21 2//21 23//21
f 23//22 2//22 24//22
f 24//23 2//23 25//23
f 25//24 2//24 26//24
f 26//25 2//25 27//25
f 27//26 2//26 28//26
f 28//27 2//27 29//27
f 29//28 2//28 30//28
f 30//29 2//29 31//29
f 31//30 2//30 32//30
f 32//31 2//31 33//31
f 33//32 2//32 1//32
f 14//33 29//33 30//33
f 33//34 1//34 14//34
f 3//35 4//35 14//35
f 5//36 6//36 14//36
f 7//37 8//37 14//37
f 9//38 10//38 14//38
f 11//39 12//39 14//39
f 14//40 15//40 16//40
f 12//41 13//41 14//41
f 8//42 9//42 14//42
f 4//43 5//43 14//43
f 32//44 33//44 14//44
f 30//45 31//45 14//45
f 28//46 29//46 14//46
f 26//47 27//47 14//47
f 24//48 25//48 14//48
f 22//49 23//49 14//49
f 20//50 21//50 14//50
f 18//51 19//51 14//51
f 16//52 17//52 14//52
f 10//53 11//53 14//53
f 14//54 17//54 18//54
f 19//55 20//55 14//55
f 23//56 24//56 14//56
f 27//57 28//57 14//57
f 31//58 32//58 14//58
f 6//59 7//59 14//59
f 14//60 21//60 22//60
f 25//61 26//61 14//61
f 1//62 3//62 14//62
